<?xml version="1.0" standalone="no"?>
<!DOCTYPE svg PUBLIC "-//W3C//DTD SVG 20010904//EN"
 "http://www.w3.org/TR/2001/REC-SVG-20010904/DTD/svg10.dtd">
<svg version="1.0" xmlns="http://www.w3.org/2000/svg"
 width="1990.000000pt" height="1990.000000pt" viewBox="0 0 1990.000000 1990.000000"
 preserveAspectRatio="xMidYMid meet">
<metadata>
Created by potrace 1.14, written by Peter Selinger 2001-2017
</metadata>
<g transform="translate(0.000000,1990.000000) scale(0.100000,-0.100000)"
fill="#000000" stroke="none">
<path d="M3447 14548 c-15 -11 -18 -25 -15 -78 l3 -65 43 -3 c37 -3 43 0 52
22 5 15 20 28 35 32 24 6 26 10 23 53 l-3 46 -60 3 c-38 2 -67 -2 -78 -10z"/>
<path d="M16830 13490 c-120 -5 -125 -6 -128 -27 -2 -15 -10 -23 -23 -23 -13
0 -24 -10 -30 -30 -10 -27 -15 -30 -55 -30 -41 0 -46 -3 -55 -29 -7 -19 -19
-31 -32 -33 -19 -3 -22 -10 -25 -55 -3 -48 -5 -52 -30 -55 -25 -3 -27 -6 -28
-58 -3 -111 -3 -108 -26 -112 -20 -3 -23 -9 -23 -43 0 -32 5 -42 23 -50 16 -7
22 -18 22 -42 0 -46 17 -84 40 -90 11 -3 20 -14 20 -24 0 -11 7 -22 15 -25 41
-16 0 -41 -93 -58 -53 -9 -69 -17 -77 -34 -9 -21 -14 -22 -180 -22 -93 0 -180
-3 -192 -6 -12 -3 -24 -17 -27 -30 -6 -23 -10 -24 -86 -24 l-80 0 -6 -30 c-6
-26 -11 -30 -41 -30 -23 0 -42 -8 -59 -25 -29 -29 -34 -31 -34 -10 0 8 -7 15
-16 15 -8 0 -13 4 -10 9 9 14 -21 21 -95 21 -39 0 -69 -4 -69 -10 0 -5 -4 -10
-10 -10 -5 0 -10 13 -10 29 0 37 -2 38 -75 46 -33 3 -61 10 -63 15 -2 5 -10 6
-18 3 -9 -3 -14 1 -14 11 0 9 -11 21 -25 26 -14 5 -25 16 -25 25 0 18 -39 35
-81 35 -22 0 -32 6 -39 25 -6 15 -17 25 -30 25 -17 0 -20 6 -20 43 0 46 -13
67 -42 67 -10 0 -23 11 -29 24 -15 31 -42 36 -211 36 -155 0 -158 1 -173 65
l-10 40 -74 3 c-81 3 -121 -13 -121 -48 0 -23 -3 -24 -46 -8 -41 15 -84 -1
-84 -32 0 -13 -7 -20 -20 -20 -28 0 -40 -30 -40 -104 l0 -66 -45 0 c-44 0 -60
-12 -30 -24 12 -4 15 -26 15 -106 0 -102 13 -154 47 -192 9 -10 14 -28 11 -43
-4 -18 -1 -25 11 -26 9 -1 22 -2 30 -3 8 0 19 -16 26 -35 6 -18 19 -39 28 -46
9 -7 17 -25 17 -42 0 -61 11 -91 36 -97 21 -6 24 -12 24 -56 0 -44 3 -52 25
-62 24 -11 25 -16 25 -89 0 -74 -1 -77 -25 -83 -18 -5 -25 -13 -25 -31 0 -18
-5 -25 -20 -25 -12 0 -22 -9 -26 -24 -3 -14 -15 -27 -28 -30 -12 -3 -28 -17
-34 -31 -7 -15 -20 -25 -32 -25 -13 0 -22 -9 -26 -25 -4 -18 -13 -25 -29 -25
-16 0 -25 7 -29 25 -6 23 -11 25 -56 25 -48 0 -51 1 -56 30 -6 27 -10 30 -44
30 -51 0 -70 8 -70 31 0 22 2 22 -185 23 -71 1 -136 5 -142 9 -7 5 -13 25 -13
47 0 34 -4 39 -31 49 -18 6 -54 11 -80 11 -43 0 -49 3 -55 25 -5 21 -12 24
-57 27 -45 3 -52 6 -57 28 -4 18 -13 26 -33 28 -21 3 -27 9 -27 28 0 13 -1 24
-2 25 -2 0 -50 4 -106 8 -61 4 -107 12 -111 19 -4 7 -31 18 -59 24 -43 11 -52
17 -52 34 0 28 -17 34 -101 34 -63 0 -69 2 -69 20 0 29 -32 37 -125 34 -115
-5 -150 2 -163 32 -11 23 -16 24 -99 24 -49 0 -95 5 -103 10 -13 9 -13 10 0
10 8 0 2 9 -15 20 -17 11 -47 20 -70 20 -32 0 -42 5 -50 23 -14 32 -90 38
-100 7 -6 -20 -7 -20 -25 2 -17 22 -24 23 -169 23 -143 0 -151 1 -171 23 -24
25 -52 28 -73 7 -13 -12 -15 -12 -20 5 -5 18 -14 20 -80 20 -42 0 -78 -3 -81
-8 -2 -4 -50 -3 -107 2 -95 8 -103 8 -115 -10 -27 -38 -35 -44 -68 -44 -19 0
-41 -9 -55 -21 -17 -16 -44 -24 -109 -31 -52 -5 -91 -15 -98 -23 -8 -11 -12
-10 -22 6 -8 12 -23 19 -45 19 -39 0 -52 -8 -62 -38 -5 -18 -12 -22 -27 -18
-42 10 -79 -5 -85 -35 -5 -24 -9 -27 -32 -23 -37 8 -81 -11 -81 -35 0 -17 -8
-20 -52 -23 -49 -3 -53 -5 -56 -30 -3 -26 -6 -28 -54 -28 -46 0 -51 -2 -61
-29 -9 -26 -14 -28 -47 -24 -39 6 -70 -14 -70 -45 0 -14 -8 -17 -46 -13 -52 4
-64 -6 -64 -52 0 -20 -6 -30 -20 -34 -11 -3 -20 -9 -20 -14 0 -5 -24 -9 -53
-9 -55 0 -77 -12 -77 -42 0 -11 -7 -18 -19 -18 -25 0 -34 -15 -41 -65 -3 -22
-9 -39 -15 -38 -5 1 -17 -4 -25 -12 -8 -7 -26 -16 -39 -20 -17 -5 -20 -10 -11
-15 8 -5 -2 -10 -28 -15 -33 -5 -42 -12 -51 -36 -5 -16 -16 -29 -24 -29 -8 0
-18 -11 -21 -25 -9 -34 -53 -35 -66 -1 -10 28 -54 41 -91 28 -36 -13 -72 0
-79 28 -5 21 -13 25 -49 28 -24 2 -49 -2 -54 -7 -20 -20 -53 -11 -86 23 -28
29 -37 33 -52 23 -10 -6 -15 -15 -13 -19 3 -4 -2 -8 -10 -8 -9 0 -16 8 -16 19
0 25 -19 31 -102 31 -61 0 -70 2 -75 20 -3 11 -14 20 -24 20 -12 0 -21 11 -27
33 -6 22 -15 33 -30 35 -14 2 -22 10 -22 22 0 26 -30 40 -85 40 -56 0 -85 -14
-85 -40 0 -18 -7 -20 -73 -20 -69 0 -74 2 -85 25 -7 14 -12 37 -12 51 0 18 -7
28 -20 31 -12 3 -27 18 -36 34 -13 26 -20 29 -64 29 -44 0 -50 3 -50 20 0 12
-10 25 -24 31 -13 6 -29 22 -35 35 -6 13 -19 24 -30 24 -12 0 -21 9 -25 24 -3
14 -15 28 -27 31 -11 4 -24 17 -29 30 -7 20 -19 26 -60 31 -44 6 -50 9 -50 30
0 23 -2 24 -80 24 -44 0 -80 3 -81 8 0 4 -1 24 -3 45 -4 54 -17 62 -98 62 -68
0 -72 1 -78 25 -5 21 -13 26 -45 28 -27 2 -43 -1 -51 -12 -10 -14 -13 -15 -24
-1 -7 8 -19 15 -26 15 -8 0 -16 11 -20 25 -4 15 -16 28 -30 31 -21 6 -28 15
-26 35 1 4 -13 9 -29 13 -17 3 -40 17 -51 31 -24 30 -44 32 -60 5 -17 -26 -26
-25 -30 3 -2 15 -11 23 -30 25 -19 2 -28 10 -30 25 -2 18 -10 22 -48 25 -40 3
-48 -1 -79 -33 -25 -27 -36 -33 -46 -25 -7 6 -41 10 -76 8 -56 -3 -65 -6 -76
-28 -12 -24 -13 -24 -13 -3 0 15 -8 25 -24 29 -14 3 -27 15 -30 29 -4 15 -15
25 -29 27 -19 3 -22 10 -25 55 -3 58 -18 70 -71 58 -43 -9 -99 4 -106 25 -9
29 -55 35 -255 35 -178 0 -185 1 -186 20 0 11 3 25 7 30 5 7 -44 9 -142 7
-144 -3 -149 -3 -149 17 0 11 -8 25 -18 30 -24 13 -609 13 -633 0 -11 -5 -19
-18 -19 -29 0 -17 -9 -19 -78 -22 -69 -3 -78 -5 -87 -25 -10 -24 -29 -30 -40
-13 -9 15 -70 -24 -73 -48 -3 -18 -11 -21 -80 -25 -42 -2 -90 -8 -105 -12 -22
-6 -36 -2 -57 14 -16 11 -37 21 -46 21 -21 0 -54 -37 -54 -61 0 -15 -10 -19
-52 -21 -46 -3 -53 -6 -58 -28 -3 -14 -12 -25 -20 -26 -8 -1 -30 -2 -48 -2
-24 -2 -35 -8 -42 -26 -5 -14 -19 -26 -32 -28 -12 -2 -25 -12 -28 -23 -8 -30
-64 -125 -73 -125 -12 0 -37 -27 -37 -39 0 -6 -8 -11 -19 -11 -40 0 -80 -22
-89 -49 -6 -18 -20 -31 -36 -35 -23 -6 -26 -12 -26 -46 0 -29 -4 -40 -15 -40
-8 0 -15 -4 -15 -9 0 -5 -30 -12 -66 -16 -38 -4 -67 -12 -70 -20 -6 -15 -54
-17 -54 -1 0 6 -4 5 -9 -3 -7 -11 -11 -5 -17 23 -6 36 -4 41 35 77 22 21 41
45 41 52 0 7 16 21 35 30 26 13 35 23 35 42 0 18 5 25 20 25 31 0 68 21 73 41
3 10 16 23 30 28 42 16 51 82 17 119 -25 27 -54 28 -72 4 -7 -10 -26 -25 -43
-33 -17 -8 -31 -23 -33 -36 -3 -23 -29 -30 -139 -40 -35 -2 -63 -9 -63 -13 0
-5 -8 -11 -17 -14 -24 -8 -63 -70 -63 -100 0 -34 -20 -76 -36 -76 -7 0 -15 -9
-19 -19 -3 -11 -12 -22 -20 -25 -8 -3 -15 -12 -15 -21 0 -8 -9 -15 -19 -15
-11 0 -22 -4 -25 -9 -3 -4 -24 -11 -46 -15 -31 -5 -41 -11 -46 -30 -3 -15 -16
-27 -30 -30 -17 -5 -24 -13 -24 -31 0 -24 -3 -25 -60 -25 l-60 0 0 -67 c0 -75
5 -87 38 -97 18 -6 22 -15 22 -50 0 -23 5 -47 12 -54 9 -9 9 -12 0 -12 -8 0
-12 -19 -12 -55 0 -47 -3 -55 -18 -55 -42 0 -81 -30 -88 -67 -5 -27 -13 -37
-35 -45 -21 -7 -29 -17 -29 -34 0 -19 -5 -24 -25 -24 -20 0 -27 -6 -31 -29 -6
-27 -10 -30 -53 -33 -37 -2 -48 -8 -56 -25 -11 -25 -38 -28 -176 -23 -74 2
-109 -11 -109 -40 0 -17 -7 -20 -39 -20 -57 0 -71 -8 -71 -41 0 -17 -6 -32
-15 -35 -8 -4 -15 -12 -15 -19 0 -7 -7 -16 -16 -19 -11 -4 -14 -18 -12 -53 3
-48 3 -48 46 -57 36 -8 48 -17 74 -57 36 -54 57 -61 184 -58 40 1 77 -2 83 -5
19 -12 12 -35 -16 -48 -24 -11 -29 -21 -33 -63 -4 -42 -8 -50 -30 -55 -16 -4
-26 -14 -28 -28 -2 -15 -10 -22 -25 -22 -42 0 -69 -13 -77 -36 -8 -19 -17 -23
-62 -26 -46 -3 -53 -6 -56 -25 -2 -15 -13 -24 -33 -28 -22 -5 -29 -12 -29 -30
0 -16 -7 -25 -24 -29 -24 -6 -36 -30 -36 -78 0 -26 -3 -28 -39 -28 -51 0 -71
-21 -71 -71 0 -33 -4 -41 -25 -49 -15 -6 -25 -17 -25 -30 0 -15 -7 -20 -26
-20 -15 0 -38 -12 -56 -30 -19 -19 -40 -30 -58 -30 -24 0 -29 -5 -32 -27 -3
-24 -8 -28 -41 -31 -26 -2 -42 -10 -53 -26 -8 -13 -28 -26 -44 -30 -24 -4 -30
-11 -30 -31 0 -20 -5 -25 -24 -25 -29 0 -36 -16 -36 -83 0 -59 6 -71 37 -81
12 -4 23 -17 25 -29 2 -14 11 -23 25 -25 13 -2 23 -10 23 -17 0 -27 31 -45 76
-45 37 0 44 -3 44 -19 0 -28 11 -32 95 -34 l75 -1 0 -58 c0 -55 -1 -58 -25
-58 -18 0 -26 -7 -31 -25 -5 -20 -12 -25 -38 -25 -68 0 -76 -7 -76 -65 0 -48
-2 -54 -23 -57 -12 -2 -26 -13 -32 -25 -5 -12 -17 -24 -27 -26 -10 -3 -22 -16
-27 -30 -6 -15 -19 -27 -33 -29 -20 -3 -23 -9 -26 -55 -2 -43 -6 -53 -21 -53
-22 0 -41 -19 -41 -42 0 -14 -8 -18 -39 -18 -59 0 -71 -8 -71 -46 0 -20 -5
-34 -12 -34 -7 -1 -30 -3 -50 -6 -28 -4 -41 -1 -58 16 -11 11 -18 25 -15 30
11 18 -54 10 -87 -10 -38 -23 -70 -25 -97 -8 -15 9 -25 9 -46 0 -14 -7 -42
-12 -61 -12 -39 0 -114 -21 -114 -32 0 -5 -8 -8 -18 -8 -23 0 -62 -28 -62 -44
0 -28 35 -56 70 -57 58 -2 90 -18 88 -44 -2 -18 -10 -25 -36 -30 -41 -8 -95
-56 -72 -63 8 -3 17 -8 20 -11 8 -10 123 -59 152 -66 27 -5 58 6 87 34 11 10
33 11 90 6 101 -9 111 -12 131 -30 9 -8 31 -15 48 -15 17 0 34 -4 37 -10 3 -5
19 -10 36 -10 24 0 29 -4 29 -24 0 -21 6 -26 43 -31 39 -6 87 -2 130 11 9 3
22 14 27 25 9 17 22 19 100 19 l90 0 0 -115 c0 -107 -1 -115 -19 -115 -21 0
-26 -10 -36 -77 -4 -28 -12 -43 -24 -46 -21 -5 -29 -40 -32 -137 -2 -55 -6
-67 -28 -86 -25 -22 -26 -26 -29 -159 -3 -112 -1 -140 12 -154 10 -11 12 -21
6 -31 -19 -29 -11 -99 12 -122 13 -13 30 -35 38 -49 56 -96 68 -104 149 -94
101 13 109 15 114 36 8 30 61 23 65 -8 2 -13 8 -23 13 -23 5 0 9 -7 9 -15 0
-9 7 -18 15 -21 9 -4 15 -19 15 -40 0 -26 -8 -42 -32 -64 -18 -16 -41 -30 -51
-30 -10 0 -31 -7 -46 -15 -34 -17 -41 -45 -41 -159 0 -85 8 -106 42 -106 11 0
18 -7 18 -21 0 -13 10 -23 30 -30 16 -6 32 -19 35 -29 9 -29 116 -43 261 -34
l122 7 4 -29 c3 -27 6 -29 55 -32 37 -2 53 -7 53 -17 0 -31 30 -45 101 -45 65
0 69 -1 69 -22 0 -43 12 -68 35 -74 13 -3 26 -16 29 -29 6 -25 36 -40 84 -44
15 -1 19 -10 19 -47 0 -32 5 -51 16 -59 10 -7 17 -20 17 -29 0 -19 -46 -96
-58 -96 -4 0 -13 -13 -20 -30 -7 -16 -21 -32 -32 -35 -24 -8 -30 -33 -30 -147
0 -98 10 -148 31 -148 6 0 23 -9 37 -21 22 -17 35 -19 71 -14 24 4 49 9 56 12
14 5 54 83 72 140 12 37 7 136 -7 141 -6 2 -10 17 -10 33 0 19 -5 29 -15 29
-11 0 -15 11 -15 40 0 22 5 40 11 40 5 0 8 4 4 9 -3 5 4 12 15 16 11 3 20 13
20 20 0 15 58 35 99 35 35 0 69 -43 78 -98 6 -35 14 -50 31 -57 13 -6 22 -19
22 -31 0 -22 28 -54 48 -54 9 0 12 -36 12 -123 0 -150 8 -174 67 -189 30 -9
43 -18 48 -35 5 -20 12 -23 50 -23 39 0 45 3 51 25 9 36 59 36 68 0 5 -20 14
-25 55 -31 41 -5 50 -10 55 -30 5 -17 13 -24 30 -24 35 0 56 -10 56 -27 0 -8
4 -12 9 -9 5 3 11 -12 15 -33 5 -33 10 -39 37 -45 17 -3 42 -3 55 0 20 5 24 2
24 -15 0 -25 28 -41 74 -41 28 0 35 -4 38 -22 2 -13 15 -29 30 -36 16 -7 28
-21 28 -31 0 -12 10 -21 24 -25 15 -4 26 -14 28 -29 2 -14 11 -23 26 -25 13
-2 27 -14 32 -27 5 -13 18 -26 28 -29 14 -5 21 -19 26 -56 5 -41 11 -51 30
-56 22 -5 23 -11 29 -118 6 -114 20 -166 43 -166 7 0 14 -12 16 -27 2 -20 9
-29 25 -31 17 -3 23 -10 23 -28 0 -20 -5 -24 -29 -24 -16 0 -41 -4 -55 -10
-23 -8 -26 -15 -26 -60 0 -44 -3 -50 -20 -50 -23 0 -40 -34 -40 -81 0 -24 -4
-29 -25 -29 -21 0 -25 -5 -25 -30 0 -29 -1 -30 -50 -30 -47 0 -54 3 -102 51
-39 38 -63 54 -100 62 -26 7 -48 15 -48 19 0 5 -8 8 -18 8 -10 0 -24 9 -32 20
-8 11 -19 20 -25 20 -12 0 -42 68 -37 83 3 10 -23 37 -37 37 -6 0 -11 5 -11
10 0 6 -11 10 -24 10 -14 0 -28 5 -31 10 -3 6 -17 10 -31 10 -37 0 -114 82
-114 122 0 18 -4 45 -10 62 -5 17 -12 43 -15 58 -3 19 -13 30 -30 34 -16 4
-25 14 -27 32 -2 19 -10 28 -25 30 -19 3 -23 10 -23 37 0 47 -9 65 -36 76 -31
11 -33 63 -4 81 25 16 26 54 1 67 -10 6 -21 24 -24 40 -6 26 -12 30 -50 36
-24 4 -118 5 -209 3 -141 -2 -169 -6 -185 -20 -11 -10 -23 -18 -28 -18 -4 0
-13 -7 -19 -16 -18 -24 -66 21 -66 62 0 25 -7 34 -37 50 -49 26 -79 42 -101
53 -27 13 -119 4 -151 -15 -22 -13 -31 -29 -41 -73 -7 -31 -11 -58 -9 -59 2
-2 -8 -10 -23 -18 l-28 -15 0 -180 0 -179 25 -12 c23 -10 25 -16 25 -82 -1
-94 -18 -116 -87 -116 -44 0 -51 -3 -61 -26 -7 -14 -16 -22 -22 -19 -16 10
-50 -14 -50 -35 0 -10 -5 -20 -10 -22 -10 -3 1 -49 21 -90 4 -9 5 -32 2 -51
-4 -30 -1 -38 20 -52 15 -9 27 -28 29 -43 2 -19 10 -28 26 -30 13 -2 27 -14
32 -28 5 -13 16 -24 24 -24 20 0 76 -55 76 -74 0 -28 12 -46 31 -46 10 0 24
-12 31 -27 11 -24 20 -28 60 -31 39 -3 47 -7 52 -27 4 -14 15 -25 29 -27 14
-2 23 -11 25 -26 4 -29 10 -31 97 -34 70 -3 70 -3 73 -33 6 -74 5 -72 88 -77
57 -3 79 -8 89 -21 7 -9 19 -17 28 -17 9 0 19 -4 22 -10 3 -5 22 -10 41 -10
27 0 42 -7 62 -30 15 -17 34 -30 43 -30 9 0 21 -11 27 -24 6 -14 21 -26 32
-28 l22 -3 -20 -23 c-15 -17 -19 -32 -15 -60 4 -30 -1 -49 -26 -90 -17 -29
-31 -57 -31 -62 0 -6 -4 -10 -9 -10 -5 0 -9 -39 -9 -87 0 -96 20 -158 58 -181
26 -16 173 -18 178 -3 2 7 39 11 96 11 104 0 152 12 159 41 4 16 14 19 56 19
46 0 51 2 57 25 6 25 7 25 126 25 126 0 158 8 158 40 0 16 7 20 38 20 51 0
102 16 117 37 12 16 14 12 20 -34 8 -55 17 -63 82 -63 23 0 33 -6 38 -20 9
-27 32 -31 155 -28 101 3 104 4 110 28 4 15 15 26 30 30 16 4 26 14 28 28 3
20 9 22 58 22 l54 0 0 55 c0 54 0 55 29 55 23 0 30 -5 33 -22 2 -13 15 -29 31
-36 15 -7 27 -19 27 -26 0 -8 7 -17 16 -20 20 -8 218 -8 238 0 10 4 18 24 22
55 5 41 11 50 30 55 20 5 24 13 24 43 0 53 10 61 76 68 67 7 94 17 94 38 0 22
18 18 25 -4 3 -11 12 -22 20 -25 10 -3 15 -20 15 -48 0 -24 4 -49 8 -55 11
-17 90 -27 146 -19 58 9 66 23 73 137 5 76 9 89 23 89 21 0 30 19 30 66 0 28
-4 35 -25 40 -24 6 -25 9 -25 90 l0 83 102 3 c101 3 103 3 116 30 8 16 21 28
32 28 12 0 22 9 26 24 3 13 16 28 30 35 22 9 24 17 26 78 1 38 1 96 -1 130 -2
53 0 63 17 72 55 29 57 200 3 214 -18 4 -21 13 -21 61 0 47 3 56 18 56 38 0
42 19 42 182 0 152 1 158 20 158 25 0 44 43 36 83 -9 44 3 74 30 81 17 5 24
14 26 34 1 15 2 34 4 42 1 8 2 21 3 28 1 6 10 12 20 12 26 0 31 18 31 126 0
92 1 94 25 100 22 5 25 12 27 58 1 28 2 61 2 73 1 17 13 29 43 44 23 11 47 27
54 35 17 21 18 116 2 121 -7 3 -13 11 -13 19 0 9 -4 13 -9 10 -15 -10 -21 21
-21 105 0 65 -3 82 -19 98 -34 34 -42 59 -35 111 l7 50 52 0 c48 0 53 -2 59
-25 4 -16 13 -25 26 -25 18 0 20 -7 21 -82 1 -109 6 -398 8 -423 1 -11 -2 -53
-5 -92 -5 -55 -3 -73 6 -73 9 0 10 -4 2 -13 -10 -12 -8 -80 4 -98 3 -5 14 -9
25 -9 16 0 19 -7 19 -54 0 -51 2 -55 28 -61 15 -3 32 -16 37 -28 18 -40 90
-35 101 7 3 14 16 27 29 30 23 6 35 31 35 79 0 26 2 27 50 27 45 0 50 2 56 25
3 14 4 38 2 54 -3 23 1 30 22 38 24 9 28 17 34 69 3 32 2 81 -3 109 -5 27 -7
54 -4 59 10 15 13 368 5 401 -6 20 -16 31 -30 33 -21 3 -22 8 -22 126 0 153
-6 185 -36 198 -13 6 -24 19 -24 29 0 9 -12 26 -26 36 -23 17 -27 28 -32 91
-5 78 -5 78 -77 84 -28 3 -30 6 -35 53 l-5 50 -45 7 c-25 3 -73 7 -107 7 -62
1 -63 2 -64 29 0 15 -2 41 -3 57 -1 17 -3 47 -4 68 -2 31 -7 40 -29 49 l-28
12 25 4 c32 5 40 18 40 69 0 35 3 42 23 45 21 3 22 7 25 131 l3 129 -30 11
c-28 10 -30 14 -29 60 1 45 -6 59 -35 69 -4 2 -10 53 -13 113 -7 142 -9 153
-37 157 -16 2 -23 11 -25 31 -3 20 -9 27 -25 27 -16 0 -26 9 -34 30 -7 20 -18
30 -32 30 -14 0 -23 8 -27 25 -4 15 -13 25 -24 25 -11 0 -20 10 -23 29 -4 20
-14 31 -32 35 -22 6 -25 12 -25 47 0 39 -26 99 -42 99 -14 0 -8 39 9 60 10 11
27 20 38 20 25 0 40 10 48 33 4 10 11 15 17 12 5 -3 10 -1 10 4 0 6 13 11 29
11 17 0 33 5 36 10 3 6 39 10 79 10 54 0 77 4 86 15 11 13 49 15 249 14 130 0
246 -3 257 -6 14 -3 26 -18 35 -45 7 -23 21 -43 31 -46 28 -7 24 -64 -4 -77
-16 -7 -25 -22 -30 -55 -11 -63 -2 -99 28 -106 23 -6 24 -10 24 -78 0 -43 5
-77 12 -84 7 -7 31 -12 55 -12 31 0 43 -4 43 -14 0 -23 41 -46 80 -46 26 0 31
-3 20 -10 -12 -8 -9 -10 13 -10 16 0 26 4 22 10 -4 6 5 10 19 10 14 0 26 -4
26 -10 0 -22 61 -40 139 -40 73 0 84 -3 123 -30 l43 -30 155 -2 c85 0 183 2
216 7 34 4 95 4 136 1 63 -6 75 -11 83 -29 6 -12 20 -23 33 -25 16 -2 22 -10
22 -27 0 -13 13 -36 30 -52 19 -17 30 -38 30 -55 0 -21 6 -28 29 -33 16 -3 40
-3 53 0 21 5 27 2 32 -19 10 -38 65 -49 221 -42 148 6 139 6 265 0 64 -4 108
-1 135 8 l40 13 0 70 c0 65 -2 70 -22 73 -15 2 -25 13 -29 28 -4 17 -15 27
-35 31 -18 3 -29 12 -31 26 -2 16 -13 23 -43 29 -22 5 -50 20 -63 33 -20 22
-31 25 -98 25 -65 0 -75 2 -70 16 3 9 6 22 6 29 0 11 25 15 113 17 108 3 112
4 115 26 3 20 9 22 66 22 35 0 84 6 109 14 40 12 48 12 58 -1 8 -9 27 -13 53
-11 l41 3 2 55 c4 76 24 163 42 176 10 8 17 35 19 83 l4 71 37 5 c20 4 43 7
51 8 8 1 16 12 18 24 3 21 27 33 70 33 25 0 63 19 75 38 4 6 24 12 45 12 27 0
41 -6 58 -27 21 -26 22 -27 63 -13 39 12 42 12 61 -10 19 -22 24 -22 111 -15
84 6 92 5 110 -14 23 -25 -15 -22 444 -30 l370 -6 0 -24 c0 -16 8 -27 24 -32
12 -5 31 -19 41 -31 15 -19 27 -22 86 -21 184 2 174 1 184 28 9 23 14 25 77
25 75 0 89 5 94 35 4 18 13 20 87 23 75 3 82 1 82 -16 0 -35 23 -43 121 -40
91 3 94 4 107 31 7 15 17 27 22 27 11 0 37 -26 42 -42 5 -15 126 -23 204 -13
46 5 57 11 64 31 7 16 17 24 34 24 18 0 25 -7 30 -31 l6 -31 77 6 c43 3 85 6
93 6 278 -7 330 -12 330 -31 0 -12 9 -21 25 -25 24 -6 25 -10 25 -78 0 -39 4
-76 8 -82 4 -6 30 -14 57 -18 33 -4 55 -13 66 -27 9 -12 31 -23 57 -26 l42 -6
0 -48 c0 -44 3 -49 25 -55 17 -4 25 -13 25 -29 0 -57 12 -85 36 -85 24 0 24
-1 24 -99 0 -103 10 -131 47 -131 12 0 14 -7 9 -30 -8 -41 9 -80 34 -80 15 0
22 -8 27 -30 5 -29 8 -30 59 -30 47 0 54 -3 54 -20 0 -11 12 -26 29 -34 16 -9
31 -24 34 -36 3 -12 13 -20 26 -20 16 0 21 -6 21 -25 0 -18 7 -26 25 -31 15
-4 28 -16 31 -29 3 -13 16 -26 29 -29 15 -4 25 -15 27 -29 3 -22 6 -22 138
-22 132 0 135 0 138 23 2 12 6 22 10 23 4 1 25 2 46 3 46 3 66 25 66 72 0 22
9 42 25 58 17 17 25 36 25 60 0 30 3 35 28 38 26 3 27 6 30 61 3 55 4 57 28
53 20 -4 24 -1 24 19 0 16 9 28 28 37 15 7 28 23 30 36 2 14 10 22 23 22 13 0
24 10 30 30 6 17 17 30 24 30 18 0 28 17 35 60 4 25 13 39 34 48 26 13 28 18
26 65 -4 87 -2 97 26 109 22 10 25 17 24 57 -3 91 -1 101 24 111 33 12 35 17
38 93 l3 67 41 0 c28 0 46 6 59 20 23 26 57 26 73 0 10 -17 23 -20 81 -20 64
0 69 -2 75 -24 6 -25 31 -36 82 -36 23 0 34 -6 42 -25 10 -21 18 -25 57 -25
25 0 45 -4 45 -10 0 -5 9 -19 20 -30 16 -16 33 -20 85 -20 61 0 66 -2 75 -25
9 -25 11 -25 132 -26 68 -1 126 -1 130 0 3 0 11 -13 17 -30 l10 -30 98 4 c54
3 103 5 108 5 252 -5 295 -9 305 -29 14 -25 52 -25 68 1 11 19 23 20 203 19
198 0 219 4 219 42 0 17 9 19 100 19 97 0 101 1 112 25 9 21 18 25 52 25 48 0
61 7 70 38 7 22 9 22 193 22 l185 0 11 30 c9 23 16 29 30 24 10 -3 34 -3 53 1
28 5 34 10 34 30 0 17 6 25 18 25 40 0 90 21 95 40 3 12 14 20 26 20 14 0 25
9 31 25 9 24 12 25 106 25 93 0 164 18 164 41 0 5 7 9 15 9 8 0 15 -7 15 -15
0 -26 33 -35 68 -18 31 15 33 15 51 -6 19 -22 65 -29 76 -11 3 5 37 9 75 9 38
-1 91 4 118 11 38 10 56 10 83 1 23 -8 35 -8 37 -1 5 13 162 13 162 0 0 -5 13
-10 29 -10 17 0 33 5 36 10 8 14 41 13 64 -2 15 -9 32 -9 74 2 44 10 62 10 85
1 21 -9 141 -13 421 -14 l391 -2 0 113 0 112 -40 0 c-22 0 -40 5 -40 10 0 6
-28 10 -64 10 -36 0 -68 5 -71 10 -10 16 -48 11 -75 -10 -14 -11 -40 -20 -57
-20 -18 0 -33 -4 -33 -8 0 -21 -58 -32 -160 -32 -93 0 -114 3 -144 21 -31 18
-49 20 -125 17 -67 -2 -94 -7 -108 -20 -11 -10 -35 -18 -54 -18 -19 0 -40 -5
-46 -11 -7 -7 -81 -10 -229 -8 -121 2 -242 3 -270 3 -49 0 -52 1 -72 40 -24
44 -28 66 -13 66 23 0 41 34 41 75 0 38 3 44 23 47 14 2 23 11 25 26 3 16 12
25 33 29 21 4 29 11 29 27 0 12 9 25 23 31 16 7 25 23 31 56 9 47 9 47 58 53
44 6 49 10 55 36 4 20 12 30 24 30 10 0 20 8 23 18 3 9 19 25 36 34 16 9 30
24 30 33 0 24 94 21 120 -5 13 -13 33 -20 58 -20 20 0 51 -4 68 -9 46 -13 83
-3 90 25 6 24 44 35 44 13 0 -8 5 -7 15 1 9 7 12 16 8 19 -4 3 -9 16 -10 29
-3 20 1 22 45 22 26 0 53 5 60 12 21 21 14 73 -17 115 -16 22 -31 51 -33 64
-2 15 -12 25 -27 29 -27 6 -27 12 -23 243 l2 97 46 0 c41 0 47 3 57 29 12 32
42 43 89 34 15 -3 39 -2 52 1 25 6 25 7 23 109 l-2 102 -51 3 c-42 2 -53 7
-57 23 -3 11 -19 24 -36 30 -17 6 -31 17 -31 24 0 25 -43 45 -97 45 l-53 0 0
79 c0 72 2 80 21 86 11 4 24 16 28 28 12 35 14 528 2 560 -7 17 -18 27 -31 27
-18 0 -20 6 -20 73 0 79 -5 93 -35 98 -16 3 -21 14 -25 54 -4 43 -8 50 -28 53
-16 3 -25 12 -29 33 -4 22 -11 29 -29 29 -22 0 -24 4 -24 46 0 46 -15 74 -36
67 -7 -2 -17 10 -22 27 -7 20 -18 30 -31 30 -14 0 -23 9 -27 25 -4 15 -16 28
-30 31 -21 5 -24 12 -24 48 0 43 -13 66 -38 66 -8 0 -23 11 -34 25 -17 21 -28
25 -76 25 -64 0 -78 6 -83 35 -3 12 -14 21 -27 23 -12 2 -22 10 -22 17 0 25
-31 45 -70 45 -32 0 -39 4 -44 24 -4 15 -15 26 -28 28 -14 2 -24 12 -28 28 -3
15 -14 26 -26 28 -11 2 -25 15 -31 32 -7 19 -18 30 -31 30 -13 0 -22 9 -26 24
-5 21 -13 25 -54 28 -44 3 -47 5 -50 33 -5 59 -12 74 -34 77 -13 2 -29 15 -36
31 -7 15 -21 27 -32 27 -13 0 -20 8 -22 28 -3 25 -7 27 -55 30 -44 3 -52 6
-57 27 -4 14 -15 25 -28 27 -15 2 -24 13 -30 35 -9 35 -60 83 -88 83 -12 0
-20 8 -22 23 -2 16 -11 23 -30 25 -16 2 -28 9 -28 18 0 8 -4 14 -10 14 -5 0
-10 7 -10 15 0 8 -6 14 -12 13 -7 -2 -14 7 -16 20 -2 15 -14 27 -32 33 -17 6
-31 20 -34 34 -3 13 -14 26 -24 29 -11 4 -25 18 -32 31 -7 14 -21 25 -31 25
-9 0 -19 10 -23 24 -3 13 -15 26 -27 29 -11 3 -23 14 -26 25 -5 22 -30 32 -80
32 -25 0 -33 4 -33 18 0 33 -22 42 -97 42 -66 0 -73 2 -73 19 0 11 -3 22 -7
24 -18 10 -86 13 -203 7z"/>
<path d="M4296 13027 c-13 -10 -19 -32 -23 -79 l-6 -66 54 -7 c30 -3 79 -2
109 2 l55 8 3 46 c3 43 1 47 -22 53 -16 4 -28 16 -32 31 -6 23 -11 25 -63 25
-32 0 -65 -6 -75 -13z"/>
<path d="M4085 12707 c-9 -14 -18 -42 -20 -63 -3 -24 -2 -31 3 -19 4 11 16 20
27 20 15 0 21 8 23 34 5 46 -12 60 -33 28z"/>
<path d="M9022 12363 c-21 -4 -23 -9 -20 -51 l3 -47 50 0 50 0 3 39 c2 21 0
42 -5 46 -12 11 -54 17 -81 13z"/>
<path d="M311 9226 c-15 -18 -55 -25 -75 -14 -10 6 -30 4 -53 -4 -29 -10 -37
-10 -40 0 -5 14 -63 17 -63 2 0 -5 -13 -10 -30 -10 -16 0 -30 5 -30 10 0 6 -4
10 -10 10 -16 0 -13 -376 3 -377 6 -1 59 -6 115 -13 76 -9 107 -9 115 -1 6 6
35 11 64 11 29 0 53 5 53 10 0 6 7 10 15 10 9 0 19 8 22 18 4 9 20 29 36 45
17 16 27 33 23 42 -3 9 0 15 9 15 8 0 15 5 15 10 0 6 31 10 74 10 41 0 78 5
81 10 3 6 15 10 25 10 10 0 20 6 23 13 2 8 31 12 93 12 54 0 98 6 112 14 13 7
31 10 39 7 19 -8 71 14 78 32 7 18 -26 61 -47 62 -10 0 -18 5 -18 11 0 8 -5 7
-15 -1 -12 -10 -21 -10 -38 -2 -36 18 -63 23 -160 32 -113 11 -157 20 -157 31
0 5 -56 9 -124 9 -93 0 -126 -3 -135 -14z"/>
<path d="M17800 8761 c-65 -9 -70 -15 -70 -79 0 -46 4 -60 20 -72 11 -8 20
-22 20 -31 0 -43 22 -78 57 -90 36 -12 147 -9 160 5 5 4 10 48 11 96 4 85 3
90 -22 115 -14 14 -26 30 -26 36 0 25 -61 33 -150 20z"/>
<path d="M918 8313 c-14 -4 -18 -15 -18 -59 0 -49 -3 -57 -32 -84 -18 -16 -41
-30 -50 -30 -21 0 -28 -22 -29 -87 -2 -59 5 -73 32 -73 18 0 19 -8 19 -127 0
-71 4 -133 8 -139 4 -7 16 -13 27 -15 17 -4 21 -14 25 -84 5 -79 5 -79 36 -86
37 -7 71 -39 80 -75 4 -15 14 -29 23 -31 10 -2 22 -18 28 -34 8 -19 18 -29 32
-29 16 0 21 -6 21 -25 0 -18 7 -26 25 -31 30 -7 82 -56 87 -81 2 -10 16 -24
31 -31 15 -7 27 -21 27 -32 0 -28 17 -34 96 -31 69 2 73 1 76 -21 2 -14 11
-24 23 -26 12 -2 26 -15 32 -32 l11 -30 91 0 c54 0 91 -4 91 -10 0 -16 38 -12
60 7 11 10 20 23 20 30 0 11 38 33 56 33 2 0 4 -14 4 -31 l0 -30 53 3 c48 3
52 5 55 31 3 21 9 27 26 27 18 0 25 7 29 29 9 43 -2 69 -32 76 -24 5 -26 9
-26 58 l0 52 -53 0 c-46 0 -52 2 -52 21 0 35 -21 43 -100 41 -66 -2 -78 1 -98
21 -12 12 -25 36 -29 52 -6 32 -17 37 -83 42 -28 2 -36 8 -38 26 -2 14 -10 22
-23 22 -15 0 -19 7 -19 33 0 57 -11 78 -41 84 -16 3 -29 12 -29 19 0 7 -11 21
-24 30 -20 12 -26 26 -28 62 -3 43 -6 48 -35 57 -18 5 -33 15 -33 22 0 6 -9
18 -20 26 -16 11 -20 27 -22 92 -3 75 -4 79 -28 85 -37 9 -39 45 -3 62 22 10
29 21 31 48 3 44 -6 57 -43 64 -17 2 -32 5 -35 6 -3 1 -8 2 -12 1 -4 0 -15 15
-24 34 -8 19 -21 39 -28 44 -16 13 -56 2 -56 -15 0 -8 -7 -14 -15 -14 -9 0
-15 9 -15 24 0 30 -33 42 -82 29z"/>
<path d="M157 8150 c-36 -6 -57 -17 -76 -39 -15 -17 -34 -31 -41 -31 -36 0
-39 -29 -40 -317 l0 -283 25 -6 c23 -6 24 -10 27 -87 3 -81 3 -82 31 -85 27
-3 27 -4 27 -82 0 -77 1 -80 25 -86 21 -5 25 -12 25 -41 0 -48 16 -73 46 -73
17 0 28 -7 31 -19 3 -11 13 -21 24 -24 10 -3 23 -17 29 -31 5 -14 15 -26 23
-26 7 0 17 -15 22 -32 10 -32 12 -33 68 -36 44 -2 60 -7 70 -23 6 -11 29 -24
49 -29 26 -8 38 -17 40 -33 3 -22 3 -22 245 -24 227 -2 243 -1 252 16 6 10 7
21 4 25 -3 3 1 6 10 6 24 0 47 29 47 60 0 54 -61 80 -102 43 -17 -15 -18 -14
-18 21 0 28 -5 39 -23 47 -13 6 -27 20 -32 32 -6 12 -20 23 -32 25 -12 2 -24
13 -27 27 -5 19 -15 24 -56 30 -40 5 -50 11 -50 26 0 25 -34 41 -83 38 -83 -5
-87 -3 -87 39 0 44 -8 58 -35 63 -12 3 -21 14 -23 27 -2 14 -13 24 -28 28 -23
6 -24 10 -24 86 0 79 0 80 -30 91 -31 12 -37 21 -20 32 6 3 10 17 10 31 0 14
-4 22 -10 19 -6 -3 -10 1 -10 9 0 10 -9 16 -24 16 -22 0 -23 5 -29 72 -3 39
-10 75 -15 80 -6 6 -4 21 5 39 20 40 9 87 -23 95 -31 8 -33 46 -1 59 17 8 23
20 25 53 3 37 0 44 -18 49 -19 5 -20 10 -14 51 5 32 4 43 -5 38 -6 -4 -11 -1
-11 8 0 26 -94 40 -173 26z"/>
<path d="M7558 7243 c-9 -2 -19 -15 -22 -27 -8 -33 -60 -86 -84 -86 -13 0 -22
-9 -26 -25 -4 -15 -16 -27 -30 -31 -41 -10 -43 -99 -2 -110 12 -3 26 -15 31
-27 6 -12 20 -23 33 -25 14 -2 22 -10 22 -22 0 -24 29 -40 74 -40 26 0 36 -5
41 -21 4 -11 17 -24 30 -29 20 -8 24 -17 27 -57 3 -41 7 -50 31 -61 15 -7 27
-20 27 -29 0 -9 11 -31 25 -49 l25 -33 -1 -280 0 -281 -24 -6 c-14 -3 -27 -15
-30 -25 -9 -27 3 -76 20 -83 23 -8 -5 -53 -40 -63 -27 -8 -30 -13 -33 -52 -3
-35 0 -43 16 -48 20 -5 20 -5 1 -24 -23 -23 -25 -62 -4 -79 8 -7 41 -13 73
-14 54 -1 58 0 72 30 13 28 19 31 50 27 48 -5 61 6 63 58 2 38 6 46 30 56 17
8 27 20 27 33 0 11 6 20 14 20 23 0 46 29 46 56 0 14 11 36 25 50 14 14 25 31
25 39 0 8 12 20 28 27 27 13 27 15 30 115 3 95 4 102 25 109 33 10 37 21 37
120 0 108 -8 154 -26 154 -23 0 -32 32 -32 113 -1 94 -7 117 -31 117 -21 0
-31 35 -31 107 0 40 -3 45 -30 54 -23 9 -30 17 -30 38 0 16 -10 37 -25 51 -15
14 -25 35 -25 51 0 23 -5 28 -35 33 -19 4 -35 11 -35 17 0 18 -46 32 -69 20
-19 -11 -21 -9 -27 29 -5 31 -12 42 -29 46 -37 9 -69 0 -79 -22 -9 -20 -9 -20
-32 3 -13 13 -27 35 -30 48 -4 15 -13 25 -24 25 -10 0 -24 2 -32 4 -7 2 -20 2
-30 -1z"/>
<path d="M1165 6910 c4 -6 11 -8 16 -5 14 9 11 15 -7 15 -8 0 -12 -5 -9 -10z"/>
<path d="M7579 5212 c-27 -8 -39 -37 -39 -93 0 -64 6 -69 87 -69 66 0 73 6 72
59 -2 83 -9 95 -61 101 -25 3 -52 4 -59 2z"/>
<path d="M7108 4144 c-9 -3 -19 -16 -22 -29 -4 -14 -15 -25 -29 -27 -18 -2
-23 -11 -28 -48 -3 -25 -7 -37 -7 -27 -2 13 -11 17 -48 17 -40 0 -46 -3 -55
-28 -8 -25 -13 -27 -49 -24 -46 5 -70 -10 -70 -42 0 -19 -6 -21 -52 -21 l-53
0 -3 -45 c-2 -38 -7 -48 -33 -63 -31 -17 -31 -18 -24 -80 4 -34 9 -65 11 -69
7 -11 112 -21 158 -14 38 6 44 11 53 39 5 18 13 32 18 32 6 0 15 4 21 8 7 4
14 0 18 -8 4 -11 20 -15 55 -15 47 0 50 2 53 28 3 25 7 27 53 32 40 4 52 10
60 28 6 13 20 25 31 28 14 4 24 16 28 35 3 16 12 29 20 29 25 0 36 35 36 117
0 94 -5 115 -30 131 -22 13 -87 23 -112 16z"/>
<path d="M0 3710 l0 -100 55 0 55 0 -6 88 c-7 97 -17 112 -71 112 l-33 0 0
-100z"/>
</g>
</svg>
